<svg width="31" height="31" viewBox="0 0 31 31" fill="none" xmlns="http://www.w3.org/2000/svg">
<g id="Frame" clip-path="url(#clip0_401_2810)">
<g id="Group">
<path id="Vector" d="M30.4823 15.2412C30.4823 22.8482 24.9097 29.1524 17.6233 30.2972V19.6464H21.1728L21.8502 15.2412H17.6233V12.3803C17.6233 11.1769 18.2126 10.0005 20.1071 10.0005H22.0286V6.25001C22.0286 6.25001 20.2832 5.95196 18.6168 5.95196C15.135 5.95196 12.859 8.06314 12.859 11.8813V15.2412H8.9889V19.6464H12.859V30.2972C5.57262 29.1524 0 22.8482 0 15.2412C0 6.82353 6.82353 0 15.2412 0C23.6588 0 30.4823 6.82353 30.4823 15.2412Z" fill="white"/>
</g>
</g>
<defs>
<clipPath id="clip0_401_2810">
<rect width="30.4823" height="30.2972" fill="white"/>
</clipPath>
</defs>
</svg>
