<svg width="31" height="31" viewBox="0 0 31 31" fill="none" xmlns="http://www.w3.org/2000/svg">
<g id="Frame" clip-path="url(#clip0_401_2798)">
<g id="Group">
<path id="Vector" d="M15.6972 12.0417C13.9315 12.0417 12.4977 13.4732 12.4977 15.2412C12.4977 17.0069 13.9315 18.4384 15.6972 18.4384C17.4629 18.4384 18.8967 17.0069 18.8967 15.2412C18.8967 13.4732 17.4629 12.0417 15.6972 12.0417ZM15.6972 12.0417C13.9315 12.0417 12.4977 13.4732 12.4977 15.2412C12.4977 17.0069 13.9315 18.4384 15.6972 18.4384C17.4629 18.4384 18.8967 17.0069 18.8967 15.2412C18.8967 13.4732 17.4629 12.0417 15.6972 12.0417ZM15.6972 0C7.27958 0 0.456055 6.82353 0.456055 15.2412C0.456055 23.6588 7.27958 30.4823 15.6972 30.4823C24.1149 30.4823 30.9384 23.6588 30.9384 15.2412C30.9384 6.82353 24.1149 0 15.6972 0ZM25.2348 19.1971C25.1896 20.2177 25.0271 20.9154 24.79 21.5273C24.5439 22.1573 24.2165 22.6924 23.6836 23.2253C23.1485 23.7604 22.6133 24.0878 21.9834 24.3317C21.3737 24.571 20.676 24.7313 19.6532 24.7788C18.6303 24.8262 18.3029 24.8375 15.6972 24.8375C13.0915 24.8375 12.7641 24.8262 11.7413 24.7788C10.7184 24.7313 10.0207 24.571 9.41109 24.3317C8.78112 24.0878 8.24599 23.7604 7.71085 23.2253C7.17797 22.6924 6.85057 22.1573 6.60445 21.5273C6.36737 20.9154 6.2048 20.2177 6.15964 19.1971C6.11222 18.1742 6.10093 17.8468 6.10093 15.2412C6.10093 12.6332 6.11222 12.3081 6.15964 11.283C6.2048 10.2624 6.36737 9.56468 6.60445 8.95503C6.85057 8.32281 7.17797 7.78767 7.71085 7.2548C8.24599 6.72192 8.78112 6.39226 9.41109 6.1484C10.0207 5.91131 10.7184 5.74874 11.7413 5.70133C12.7641 5.65391 13.0915 5.64488 15.6972 5.64488C18.3029 5.64488 18.6303 5.65391 19.6532 5.70133C20.676 5.74874 21.3737 5.91131 21.9834 6.1484C22.6133 6.39226 23.1485 6.72192 23.6836 7.2548C24.2165 7.78767 24.5439 8.32281 24.79 8.95503C25.0271 9.56468 25.1896 10.2624 25.2348 11.283C25.2822 12.3081 25.2935 12.6332 25.2935 15.2412C25.2935 17.8468 25.2822 18.1742 25.2348 19.1971ZM23.1778 9.58049C23.004 9.13341 22.7962 8.81278 22.4598 8.47635C22.1234 8.14217 21.805 7.93444 21.3579 7.75832C21.0192 7.62736 20.5112 7.47156 19.5741 7.42866C18.5626 7.3835 18.26 7.37221 15.6972 7.37221C13.1344 7.37221 12.8319 7.3835 11.8203 7.42866C10.8833 7.47156 10.3752 7.62736 10.0365 7.75832C9.58947 7.93444 9.27109 8.14217 8.93466 8.47635C8.59822 8.81278 8.39049 9.13341 8.21663 9.58049C8.08567 9.91918 7.92761 10.4272 7.88697 11.362C7.83955 12.3736 7.83052 12.6784 7.83052 15.2412C7.83052 17.8017 7.83955 18.1065 7.88697 19.1181C7.92761 20.0529 8.08567 20.5609 8.21663 20.8996C8.39049 21.3467 8.59822 21.6673 8.93466 22.0037C9.27109 22.3402 9.58947 22.5479 10.0365 22.7218C10.3752 22.8527 10.8833 23.0085 11.8203 23.0514C12.8319 23.0966 13.1344 23.1079 15.6972 23.1079C18.26 23.1079 18.5626 23.0966 19.5741 23.0514C20.5112 23.0085 21.0192 22.8527 21.3579 22.7218C21.805 22.5479 22.1234 22.3402 22.4598 22.0037C22.7962 21.6673 23.004 21.3467 23.1778 20.8996C23.3088 20.5609 23.4668 20.0529 23.5075 19.1181C23.5549 18.1065 23.5639 17.8017 23.5639 15.2412C23.5639 12.6784 23.5549 12.3736 23.5075 11.362C23.4668 10.4272 23.3088 9.91918 23.1778 9.58049ZM15.6972 20.168C12.9764 20.168 10.7704 17.962 10.7704 15.2412C10.7704 12.5181 12.9764 10.3121 15.6972 10.3121C18.4181 10.3121 20.6241 12.5181 20.6241 15.2412C20.6241 17.962 18.4181 20.168 15.6972 20.168ZM20.8205 11.2694C20.1838 11.2694 19.669 10.7546 19.669 10.1179C19.669 9.48114 20.1838 8.96632 20.8205 8.96632C21.455 8.96632 21.9721 9.48114 21.9721 10.1179C21.9721 10.7546 21.455 11.2694 20.8205 11.2694ZM15.6972 12.0417C13.9315 12.0417 12.4977 13.4732 12.4977 15.2412C12.4977 17.0069 13.9315 18.4384 15.6972 18.4384C17.4629 18.4384 18.8967 17.0069 18.8967 15.2412C18.8967 13.4732 17.4629 12.0417 15.6972 12.0417Z" fill="white"/>
</g>
</g>
<defs>
<clipPath id="clip0_401_2798">
<rect width="30.4823" height="30.4823" fill="white" transform="translate(0.456055)"/>
</clipPath>
</defs>
</svg>
