<svg width="32" height="31" viewBox="0 0 32 31" fill="none" xmlns="http://www.w3.org/2000/svg">
<g id="Frame" clip-path="url(#clip0_401_2805)">
<g id="Group">
<path id="Vector" d="M16.0654 0C7.64775 0 0.824219 6.82353 0.824219 15.2412C0.824219 23.6588 7.64775 30.4823 16.0654 30.4823C24.483 30.4823 31.3066 23.6588 31.3066 15.2412C31.3066 6.82353 24.483 0 16.0654 0ZM11.3011 17.5691C11.3011 19.4771 11.2989 21.3873 11.3056 23.2953C11.3079 23.5075 11.2537 23.5707 11.0347 23.5685C9.95086 23.5572 8.86704 23.5595 7.78322 23.5662C7.60936 23.5685 7.55517 23.5256 7.55743 23.345C7.56194 19.4816 7.56194 15.6182 7.55743 11.7549C7.55743 11.5946 7.59581 11.5359 7.76516 11.5381C8.86478 11.5449 9.96666 11.5472 11.0663 11.5359C11.2763 11.5336 11.3056 11.6172 11.3056 11.7978C11.2989 13.7216 11.3011 15.6453 11.3011 17.5691ZM9.43379 9.88305C8.25514 9.88305 7.27293 8.90762 7.26841 7.72671C7.26615 6.53451 8.2461 5.5523 9.4383 5.55456C10.6237 5.55456 11.5992 6.52774 11.6014 7.70864C11.6014 8.90762 10.6305 9.88305 9.43379 9.88305ZM25.3298 23.3201C25.332 23.5166 25.2756 23.5685 25.0814 23.5685C23.9976 23.5595 22.9115 23.5572 21.8277 23.5685C21.638 23.5685 21.5951 23.5098 21.5974 23.3291C21.6019 21.3263 21.6041 19.3235 21.5974 17.3207C21.5951 16.8172 21.5635 16.316 21.4235 15.8282C21.1638 14.9296 20.5203 14.4712 19.5788 14.5209C18.2917 14.5886 17.6234 15.2254 17.4585 16.5327C17.4202 16.8466 17.4021 17.1582 17.4021 17.472C17.4021 19.4206 17.3998 21.3692 17.4066 23.3179C17.4066 23.512 17.3592 23.5685 17.1605 23.5685C16.0676 23.5572 14.9748 23.5595 13.8819 23.5662C13.7081 23.5685 13.6562 23.5211 13.6562 23.345C13.6629 19.4861 13.6629 15.6295 13.6562 11.7707C13.6562 11.581 13.7194 11.5359 13.9 11.5381C14.9364 11.5449 15.9751 11.5472 17.0115 11.5381C17.2034 11.5359 17.2531 11.5968 17.2486 11.7775C17.2373 12.2381 17.244 12.701 17.244 13.1616C17.4947 12.8794 17.7024 12.5948 17.9575 12.3532C18.7478 11.6081 19.6849 11.231 20.7755 11.2401C21.3761 11.2469 21.9677 11.2898 22.5457 11.4568C23.8689 11.8384 24.6388 12.7506 25.0046 14.0422C25.2801 15.0109 25.3298 16.0066 25.332 17.0046C25.3365 19.109 25.3252 21.2157 25.3298 23.3201Z" fill="white"/>
</g>
</g>
<defs>
<clipPath id="clip0_401_2805">
<rect width="30.4823" height="30.4823" fill="white" transform="translate(0.824219)"/>
</clipPath>
</defs>
</svg>
