<svg width="32" height="31" viewBox="0 0 32 31" fill="none" xmlns="http://www.w3.org/2000/svg">
<g id="Frame" clip-path="url(#clip0_401_2808)">
<path id="Vector" d="M16.4291 1.40573e-06C7.64333 -0.00352583 0.917415 6.6312 0.912111 15.3064C0.908575 23.6818 7.73174 30.4806 16.1409 30.4823C24.6013 30.4841 31.3927 23.6977 31.3944 15.2429C31.3944 6.87281 24.6509 0.00352864 16.4291 1.40573e-06ZM20.029 24.5143C19.8204 24.5072 19.5852 24.1686 19.4261 23.9393C18.1 22.0329 16.7898 20.1158 15.4743 18.2023C15.294 17.9413 15.1013 17.6873 14.8573 17.3487C13.5595 18.8478 12.3165 20.2869 11.0735 21.7242C10.4776 22.4156 9.81812 23.0628 9.3089 23.8106C8.76078 24.613 8.07122 24.643 7.08814 24.4772C7.94745 23.472 8.71658 22.5637 9.49455 21.6625C10.8383 20.1035 12.1591 18.5215 13.5506 17.0048C14.0828 16.4246 13.9944 16.0154 13.5913 15.4387C11.5226 12.4741 9.48394 9.48826 7.43646 6.50774C7.33922 6.36665 7.25258 6.21851 7.05101 5.8993C8.22681 5.8993 12.4738 5.8993 12.4738 5.8993C12.4738 5.8993 16.3902 11.594 17.1806 12.7368C18.9009 10.7387 20.5877 8.78457 22.2692 6.82519C23.1126 5.84462 23.1108 5.8411 24.6491 5.95573C22.3682 8.61174 20.1651 11.176 17.9108 13.8003C20.3207 17.3152 22.7395 20.8424 25.275 24.539C23.4026 24.539 21.714 24.5601 20.029 24.5143Z" fill="white"/>
</g>
<defs>
<clipPath id="clip0_401_2808">
<rect width="30.4823" height="30.4823" fill="white" transform="translate(0.912109)"/>
</clipPath>
</defs>
</svg>
