<svg width="31" height="31" viewBox="0 0 31 31" fill="none" xmlns="http://www.w3.org/2000/svg">
<g id="Frame" clip-path="url(#clip0_401_2801)">
<g id="Group">
<path id="Vector" d="M13.5771 12.1929L18.8562 15.2411L13.5771 18.2893V12.1929Z" fill="white"/>
<path id="Vector_2" d="M15.6093 0C7.19169 0 0.368164 6.82353 0.368164 15.2412C0.368164 23.6588 7.19169 30.4823 15.6093 30.4823C24.027 30.4823 30.8505 23.6588 30.8505 15.2412C30.8505 6.82353 24.027 0 15.6093 0ZM25.3456 20.1341C25.1108 21.008 24.4221 21.6966 23.5483 21.9292C21.9632 22.3537 15.6093 22.3537 15.6093 22.3537C15.6093 22.3537 9.25546 22.3537 7.67038 21.9292C6.79655 21.6966 6.10787 21.008 5.87305 20.1341C5.44855 18.5491 5.44855 15.2412 5.44855 15.2412C5.44855 15.2412 5.44855 11.9355 5.87305 10.3504C6.10787 9.47662 6.79655 8.78794 7.67038 8.55312C9.25546 8.12862 15.6093 8.12862 15.6093 8.12862C15.6093 8.12862 21.9632 8.12862 23.5483 8.55312C24.4221 8.78794 25.1108 9.47662 25.3456 10.3504C25.7701 11.9355 25.7701 15.2412 25.7701 15.2412C25.7701 15.2412 25.7701 18.5491 25.3456 20.1341Z" fill="white"/>
</g>
</g>
<defs>
<clipPath id="clip0_401_2801">
<rect width="30.4823" height="30.4823" fill="white" transform="translate(0.368164)"/>
</clipPath>
</defs>
</svg>
